<svg width="40" height="40" viewBox="0 0 40 40" fill="none" xmlns="http://www.w3.org/2000/svg">
<circle cx="20" cy="20" r="20" fill="#EBEBEB"/>
<path d="M17 14H23L20 17L17 14ZM18.5 23.66C18.2 24 18 24.5 18 25C18 25.5304 18.2107 26.0391 18.5858 26.4142C18.9609 26.7893 19.4696 27 20 27C20.5304 27 21.0391 26.7893 21.4142 26.4142C21.7893 26.0391 22 25.5304 22 25C22 24.45 21.78 23.95 21.41 23.59L22.83 22.17C23.55 22.9 24 23.9 24 25C24 26.0609 23.5786 27.0783 22.8284 27.8284C22.0783 28.5786 21.0609 29 20 29C18.9391 29 17.9217 28.5786 17.1716 27.8284C16.4214 27.0783 16 26.0609 16 25C16 23.93 16.42 22.96 17.1 22.25L17.09 22.24L24.17 15.17C24.89 14.45 25.89 14 27 14C28.0609 14 29.0783 14.4214 29.8284 15.1716C30.5786 15.9217 31 16.9391 31 18C31 19.0609 30.5786 20.0783 29.8284 20.8284C29.0783 21.5786 28.0609 22 27 22C25.9 22 24.9 21.55 24.17 20.83L25.59 19.41C25.95 19.78 26.45 20 27 20C27.5304 20 28.0391 19.7893 28.4142 19.4142C28.7893 19.0391 29 18.5304 29 18C29 17.4696 28.7893 16.9609 28.4142 16.5858C28.0391 16.2107 27.5304 16 27 16C26.45 16 25.95 16.22 25.59 16.59L18.5 23.66ZM14.41 16.59C14.05 16.22 13.55 16 13 16C12.4696 16 11.9609 16.2107 11.5858 16.5858C11.2107 16.9609 11 17.4696 11 18C11 18.5304 11.2107 19.0391 11.5858 19.4142C11.9609 19.7893 12.4696 20 13 20C13.55 20 14.05 19.78 14.41 19.41L15.83 20.83C15.1 21.55 14.1 22 13 22C11.9391 22 10.9217 21.5786 10.1716 20.8284C9.42143 20.0783 9 19.0609 9 18C9 16.9391 9.42143 15.9217 10.1716 15.1716C10.9217 14.4214 11.9391 14 13 14C14.11 14 15.11 14.45 15.83 15.17L18.59 17.93L17.17 19.35L14.41 16.59Z" fill="#108FEB"/>
</svg>
