<svg width="29" height="28" viewBox="0 0 29 28" fill="none" xmlns="http://www.w3.org/2000/svg">
<path fill-rule="evenodd" clip-rule="evenodd" d="M3.7085 3.79156L6.13516 4.21156L7.25866 17.5967C7.3485 18.6899 8.262 19.5287 9.35866 19.5252H22.0858C23.1323 19.5276 24.0202 18.7576 24.1683 17.7216L25.2755 10.0706C25.3992 9.2154 24.8053 8.42207 23.9513 8.2984C23.8767 8.2879 6.52483 8.28207 6.52483 8.28207" fill="white"/>
<path d="M3.7085 3.79156L6.13516 4.21156L7.25866 17.5967C7.3485 18.6899 8.262 19.5287 9.35866 19.5252H22.0858C23.1323 19.5276 24.0202 18.7576 24.1683 17.7216L25.2755 10.0706C25.3992 9.2154 24.8053 8.42207 23.9513 8.2984C23.8767 8.2879 6.52483 8.28207 6.52483 8.28207" stroke="white" stroke-width="1.5" stroke-linecap="round" stroke-linejoin="round"/>
<path fill-rule="evenodd" clip-rule="evenodd" d="M16.9792 12.594H20.2144H16.9792Z" fill="white"/>
<path d="M16.9792 12.594H20.2144" stroke="white" stroke-width="1.5" stroke-linecap="round" stroke-linejoin="round"/>
<path fill-rule="evenodd" clip-rule="evenodd" d="M8.84683 23.5696C9.19799 23.5696 9.48149 23.8542 9.48149 24.2042C9.48149 24.5554 9.19799 24.8401 8.84683 24.8401C8.49566 24.8401 8.21216 24.5554 8.21216 24.2042C8.21216 23.8542 8.49566 23.5696 8.84683 23.5696Z" fill="white" stroke="white" stroke-width="1.5" stroke-linecap="round" stroke-linejoin="round"/>
<path fill-rule="evenodd" clip-rule="evenodd" d="M22.0072 23.5696C22.3584 23.5696 22.6431 23.8542 22.6431 24.2042C22.6431 24.5554 22.3584 24.8401 22.0072 24.8401C21.6561 24.8401 21.3726 24.5554 21.3726 24.2042C21.3726 23.8542 21.6561 23.5696 22.0072 23.5696Z" fill="white" stroke="white" stroke-width="1.5" stroke-linecap="round" stroke-linejoin="round"/>
</svg>
