<svg width="40" height="40" viewBox="0 0 40 40" fill="none" xmlns="http://www.w3.org/2000/svg">
<circle cx="20" cy="20" r="20" fill="#108FEB"/>
<path d="M28 30H12C10.8954 30 10 29.1046 10 28V17.049C10.0338 16.3779 10.3973 15.7669 10.971 15.417L18.971 10.617C19.6041 10.2374 20.3949 10.2374 21.028 10.617L29.028 15.417C29.6292 15.7798 29.9976 16.4298 30 17.132V28C30 29.1046 29.1046 30 28 30ZM12 17.868V28H28V17.868L20 23.201L12 17.868ZM20 12.332L13.316 16.342L20 20.798L26.683 16.342L20 12.332Z" fill="#FEFEFE"/>
</svg>
