<svg width="40" height="40" viewBox="0 0 40 40" fill="none" xmlns="http://www.w3.org/2000/svg">
<circle cx="20" cy="20" r="20" fill="#108FEB"/>
<path d="M20 29C18.7369 27.9227 17.5662 26.7416 16.5 25.4691C14.9 23.5581 13 20.712 13 18.0001C12.9986 15.1676 14.7042 12.6134 17.3211 11.5294C19.9379 10.4455 22.9501 11.0453 24.952 13.0491C26.2685 14.3597 27.0059 16.1424 27 18.0001C27 20.712 25.1 23.5581 23.5 25.4691C22.4338 26.7416 21.2631 27.9227 20 29ZM20 13.0001C17.2399 13.0034 15.0033 15.24 15 18.0001C15 19.166 15.527 21.1851 18.035 24.1861C18.6531 24.9241 19.309 25.6297 20 26.3001C20.691 25.6305 21.3472 24.9259 21.966 24.1891C24.473 21.1841 25 19.1651 25 18.0001C24.9967 15.24 22.7601 13.0034 20 13.0001ZM20 21.0001C18.3431 21.0001 17 19.6569 17 18.0001C17 16.3432 18.3431 15.0001 20 15.0001C21.6569 15.0001 23 16.3432 23 18.0001C23 18.7957 22.6839 19.5588 22.1213 20.1214C21.5587 20.684 20.7957 21.0001 20 21.0001Z" fill="#FEFEFE"/>
</svg>
