<svg width="23" height="24" viewBox="0 0 23 24" fill="none" xmlns="http://www.w3.org/2000/svg">
<path d="M4.41669 15.5C5.43712 15.497 6.41895 15.1096 7.16652 14.415L14.4699 18.5882C13.964 20.5648 14.9861 22.6131 16.8696 23.3974C18.7532 24.1818 20.927 23.4643 21.9735 21.7128C23.0201 19.9614 22.6221 17.7071 21.039 16.42C19.456 15.1328 17.1679 15.2031 15.6669 16.585L8.36352 12.4119C8.44009 12.1191 8.48237 11.8184 8.48952 11.5159L15.6657 7.41502C17.0901 8.70995 19.2268 8.83001 20.7873 7.70281C22.3478 6.57561 22.9053 4.50937 22.1236 2.75021C21.3419 0.991045 19.4348 0.0199938 17.5523 0.422681C15.6699 0.825368 14.3269 2.49168 14.3334 4.41669C14.3375 4.75278 14.3834 5.08706 14.4699 5.41186L7.83852 9.20002C6.77627 7.55668 4.69753 6.89791 2.88265 7.62947C1.06777 8.36102 0.0269768 10.2772 0.401325 12.1979C0.775673 14.1185 2.45991 15.5036 4.41669 15.5Z" fill="#108FEB"/>
</svg>
