<svg width="40" height="40" viewBox="0 0 40 40" fill="none" xmlns="http://www.w3.org/2000/svg">
<circle cx="20" cy="20" r="20" fill="#EBEBEB"/>
<path d="M25.9 25.39C25.64 24.59 24.89 24 24 24H23V21C23 20.7348 22.8946 20.4804 22.7071 20.2929C22.5196 20.1054 22.2652 20 22 20H16V18H18C18.2652 18 18.5196 17.8946 18.7071 17.7071C18.8946 17.5196 19 17.2652 19 17V15H21C21.5304 15 22.0391 14.7893 22.4142 14.4142C22.7893 14.0391 23 13.5304 23 13V12.59C25.93 13.77 28 16.64 28 20C28 22.08 27.2 23.97 25.9 25.39ZM19 27.93C15.05 27.44 12 24.08 12 20C12 19.38 12.08 18.78 12.21 18.21L17 23V24C17 24.5304 17.2107 25.0391 17.5858 25.4142C17.9609 25.7893 18.4696 26 19 26M20 10C18.6868 10 17.3864 10.2587 16.1732 10.7612C14.9599 11.2638 13.8575 12.0003 12.9289 12.9289C11.0536 14.8043 10 17.3478 10 20C10 22.6522 11.0536 25.1957 12.9289 27.0711C13.8575 27.9997 14.9599 28.7362 16.1732 29.2388C17.3864 29.7413 18.6868 30 20 30C22.6522 30 25.1957 28.9464 27.0711 27.0711C28.9464 25.1957 30 22.6522 30 20C30 18.6868 29.7413 17.3864 29.2388 16.1732C28.7362 14.9599 27.9997 13.8575 27.0711 12.9289C26.1425 12.0003 25.0401 11.2638 23.8268 10.7612C22.6136 10.2587 21.3132 10 20 10Z" fill="#108FEB"/>
</svg>
